<svg xmlns="http://www.w3.org/2000/svg" width="38.358" height="33.905" viewBox="0 0 38.358 33.905">
    <g id="noun_Email_1745871" transform="translate(-7 -964.347)">
        <path id="Path_16" data-name="Path 16" d="M26.109,11.991a.446.446,0,0,0-.167.056L7.209,23.644a.446.446,0,0,0-.209.39V45.443a.446.446,0,0,0,.446.446H44.912a.446.446,0,0,0,.446-.446V24.034a.446.446,0,0,0-.209-.39l-18.733-11.6a.446.446,0,0,0-.307-.056Zm.07.976L44.466,24.285V45H7.892V24.285Zm16.5,11.959a.446.446,0,0,0-.209.084L26.179,35.087,9.885,25.01a.445.445,0,1,0-.474.753L25.942,36.007a.446.446,0,0,0,.474,0L42.946,25.762a.446.446,0,0,0-.265-.836Z" transform="translate(0 952.362)"/>
    </g>
</svg>
