<svg xmlns="http://www.w3.org/2000/svg" width="33.638" height="31.808" viewBox="0 0 33.638 31.808">
    <g id="noun_messenger_1267578" transform="translate(-2.65 -3.15)">
        <path id="Path_27" data-name="Path 27" d="M7.575,34.608a.915.915,0,0,1-.915-.915l-.732-7.32A13.431,13.431,0,0,1,3,18.139C3,10.069,10.32,3.5,19.469,3.5s16.469,6.569,16.469,14.639-7.32,14.639-16.469,14.639a18.3,18.3,0,0,1-4.886-.659l-6.7,2.434a.9.9,0,0,1-.311.055ZM19.469,5.33C11.4,5.33,4.83,11.076,4.83,18.139a11.656,11.656,0,0,0,2.69,7.32.915.915,0,0,1,.2.476l.64,6.423,5.874-2.141a.915.915,0,0,1,.567,0,16.469,16.469,0,0,0,4.666.732c8.07,0,14.639-5.746,14.639-12.809S27.539,5.33,19.469,5.33Z" stroke="#f2f1ea" stroke-width="0.7"/>
        <path id="Path_28" data-name="Path 28" d="M17.1,16.708a.915.915,0,0,1-.86-.6l-1.482-4.245-6.4,3.184a.915.915,0,1,1-.823-1.629l7.32-3.66a.915.915,0,0,1,1.336.549l1.5,4.282,6.4-2.964a.917.917,0,0,1,.769,1.665l-7.32,3.4A.915.915,0,0,1,17.1,16.708Z" transform="translate(3.288 5.091)" stroke="#f2f1ea" stroke-width="0.7"/>
    </g>
</svg>
