<svg xmlns="http://www.w3.org/2000/svg" width="33.841" height="33.825" viewBox="0 0 33.841 33.825">
    <g id="Layer_49" data-name="Layer 49" transform="translate(-0.831 -1.673)">
        <path id="Path_17" data-name="Path 17" d="M33.892,26.749l-5.874-4.422a1.885,1.885,0,0,0-2.451.176L22.651,25.4a.79.79,0,0,1-.854.187A19.93,19.93,0,0,1,15.1,21.2a19.85,19.85,0,0,1-4.384-6.7.79.79,0,0,1,.187-.854l2.894-2.9A1.885,1.885,0,0,0,13.973,8.3L9.551,2.424A1.874,1.874,0,0,0,7.26,1.847l-5.34,2.5A1.853,1.853,0,0,0,.852,6.317a35.7,35.7,0,0,0,9.612,19.439A35.575,35.575,0,0,0,30,35.491a1.56,1.56,0,0,0,.294,0,1.864,1.864,0,0,0,1.693-1.068l2.5-5.34A1.885,1.885,0,0,0,33.892,26.749Zm-.4,1.842-2.5,5.34a.79.79,0,0,1-.844.459,34.582,34.582,0,0,1-18.4-8.865l-.032-.027c-.182-.176-.363-.352-.534-.534l-.406-.411-.027-.027A34.481,34.481,0,0,1,1.888,6.146.79.79,0,0,1,2.347,5.3l5.34-2.5a.812.812,0,0,1,.988.251L13.1,8.923a.812.812,0,0,1-.075,1.068l-2.9,2.894a1.864,1.864,0,0,0-.422,2,20.827,20.827,0,0,0,4.625,7.06,20.9,20.9,0,0,0,7.06,4.625,1.853,1.853,0,0,0,2-.422l2.9-2.9a.812.812,0,0,1,1.068-.075L33.224,27.6a.812.812,0,0,1,.272.993Z" transform="translate(0)"/>
        <path id="Path_18" data-name="Path 18" d="M37.534,24.068A2.136,2.136,0,0,1,39.67,26.2a.534.534,0,1,0,1.068,0,3.2,3.2,0,0,0-3.2-3.2.534.534,0,1,0,0,1.068Z" transform="translate(-16.854 -9.938)"/>
        <path id="Path_19" data-name="Path 19" d="M37.534,17.068a5.874,5.874,0,0,1,5.874,5.874.534.534,0,0,0,1.068,0A6.942,6.942,0,0,0,37.534,16a.534.534,0,1,0,0,1.068Z" transform="translate(-16.854 -6.676)"/>
        <path id="Path_20" data-name="Path 20" d="M37.534,11.068a9.078,9.078,0,0,1,9.078,9.078.534.534,0,0,0,1.068,0A10.147,10.147,0,0,0,37.534,10a.534.534,0,1,0,0,1.068Z" transform="translate(-16.854 -3.88)"/>
    </g>
</svg>
