<svg xmlns="http://www.w3.org/2000/svg" width="20.343" height="14.88" viewBox="0 0 20.343 14.88">
    <path id="noun_send_2905006" d="M5.269,18.852l4.951,1.776,1.34,5.652a83.466,83.466,0,0,1,.039.093.394.394,0,0,0,.057.08c.008.009.011.02.02.029s.009.005.014.009a.4.4,0,0,0,.09.057c.012.006.022.014.034.019a.4.4,0,0,0,.141.026h0a.4.4,0,0,0,.146-.03.4.4,0,0,0,.036-.02.4.4,0,0,0,.093-.065c.005-.005.013-.007.018-.013l3.59-3.8,3.247,1.169a.407.407,0,0,0,.5-.2L25.3,12.311a.427.427,0,0,0,.031-.075.421.421,0,0,0,.015-.086.406.406,0,0,0-.049-.225.411.411,0,0,0-.028-.044.406.406,0,0,0-.231-.155h0l-.024,0h0a.4.4,0,0,0-.2.016L5.281,18.082a.407.407,0,0,0-.012.77ZM12.8,20.9a.4.4,0,0,0-.081.084c0,.005-.006.012-.01.017a.4.4,0,0,0-.051.116c0,.007-.007.012-.008.018l-.707,3.22-.91-3.836,8.88-5.066Zm-.13,3.938.675-3.075,1.664.6Zm6.358-1.894L15.872,21.81h0l-1.986-.715,9.889-7.572Zm2.258-9.21L10.526,19.873,6.665,18.488Z" transform="translate(-5 -11.713)" fill="#b6a573"/>
</svg>
