<svg xmlns="http://www.w3.org/2000/svg" width="34.31" height="34.31" viewBox="0 0 34.31 34.31">
    <g id="noun_whatsapp_988425" transform="translate(-6.9 -959.262)">
        <path id="Path_29" data-name="Path 29" d="M28.087,976.374a.4.4,0,0,0-.05.012,5.583,5.583,0,0,0-3.458,2.566,5.841,5.841,0,0,0-.434,3.941c.556,2.85,2.579,6,5.144,8.627s5.673,4.71,8.54,5.3a5.916,5.916,0,0,0,4-.409,6.016,6.016,0,0,0,2.764-3.508.4.4,0,0,0-.161-.459l-5.677-3.557-.037-.025-.025-.025h-.012l-.025-.012h-.012a.4.4,0,0,0-.062-.037h-.05a.409.409,0,0,0-.335.087l-.012.025a.392.392,0,0,0-.062.074l-1.463,1.45a14.378,14.378,0,0,1-6.1-6.123l1.351-1.351.062-.062.025-.025h.012l.012-.025.012-.012.012-.025s0-.008,0-.012l.012-.012.012-.025.012-.012c0-.008,0-.016,0-.025s0-.016,0-.025l.012-.012q0-.012,0-.025s0-.008,0-.012,0-.016,0-.025,0-.008,0-.012,0-.016,0-.025,0-.008,0-.012,0-.016,0-.025,0-.008,0-.012l-.012-.025s0-.008,0-.012l-.012-.025s0-.008,0-.012l-.025-.025s0-.008,0-.012l-.012-.012a.4.4,0,0,0-.05-.074l-.012-.012L28.5,976.564a.45.45,0,0,0-.409-.186Zm-.1.868,3.21,5.317-1.413,1.4a.4.4,0,0,0-.062.483c1.812,3.137,3.923,5.532,6.867,6.829a.4.4,0,0,0,.434-.087l1.5-1.5,5.218,3.26a5.024,5.024,0,0,1-2.268,2.776,5.141,5.141,0,0,1-3.483.335c-2.612-.542-5.658-2.552-8.143-5.094s-4.414-5.617-4.921-8.218a5.04,5.04,0,0,1,.359-3.409,4.6,4.6,0,0,1,2.7-2.095Z" transform="translate(-10.255 -10.265)" stroke="#000" stroke-width="0.2" fill-rule="evenodd"/>
        <path id="Path_30" data-name="Path 30" d="M24.055,959.362A17.052,17.052,0,0,0,9.9,985.93l-2,6.69a.4.4,0,0,0,.509.489l6.554-2.262a17.056,17.056,0,1,0,9.095-31.485Zm0,.793a16.262,16.262,0,1,1-8.827,29.922.4.4,0,0,0-.345-.042l-6,2.072,1.836-6.128a.4.4,0,0,0-.052-.337,16.261,16.261,0,0,1,13.392-25.486Z" stroke="#000" stroke-width="0.2" fill-rule="evenodd"/>
    </g>
</svg>