<svg xmlns="http://www.w3.org/2000/svg" width="33.332" height="27.904" viewBox="0 0 33.332 27.904">
    <g id="noun_chat_1062209" transform="translate(-7 -966.365)">
        <path id="Path_21" data-name="Path 21" d="M16.363,966.365a3.112,3.112,0,0,0-3.125,3.064v2.108H10.125A3.121,3.121,0,0,0,7,974.625v10.4a3.121,3.121,0,0,0,3.125,3.089h.557v5.765a.388.388,0,0,0,.678.254l5.232-6.02H30.982a3.113,3.113,0,0,0,3.113-3.089v-2.107h3.137a3.1,3.1,0,0,0,3.1-3.076V969.429a3.093,3.093,0,0,0-3.1-3.064H16.363Zm0,.775H37.232a2.312,2.312,0,0,1,2.326,2.289v10.416a2.322,2.322,0,0,1-2.326,2.3H34.095v-7.522a3.113,3.113,0,0,0-3.113-3.089H14.013v-2.108A2.335,2.335,0,0,1,16.363,967.14Z" fill="#fff" fill-rule="evenodd"/>
        <path id="Path_22" data-name="Path 22" d="M38.638,997.169a1.746,1.746,0,1,0,1.79,1.745A1.764,1.764,0,0,0,38.638,997.169Zm0,.776a.97.97,0,1,1-.995.969A.98.98,0,0,1,38.638,997.945Z" transform="translate(-18.292 -18.865)" fill="#b8a56c" fill-rule="evenodd"/>
        <path id="Path_23" data-name="Path 23" d="M21.867,997.169a1.745,1.745,0,1,0,1.77,1.745A1.776,1.776,0,0,0,21.867,997.169Zm0,.776a.97.97,0,1,1,0,1.939.971.971,0,1,1,0-1.939Z" transform="translate(-8.009 -18.865)" fill="#b8a56c" fill-rule="evenodd"/>
        <path id="Path_24" data-name="Path 24" d="M55.38,997.165a1.747,1.747,0,1,0,1.782,1.747A1.773,1.773,0,0,0,55.38,997.165Zm0,.775a.972.972,0,1,1-1.006.972A1,1,0,0,1,55.38,997.94Z" transform="translate(-28.537 -18.862)" fill="#b8a56c" fill-rule="evenodd"/>
    </g>
</svg>