<svg xmlns="http://www.w3.org/2000/svg" width="41.64" height="34.416" viewBox="0 0 41.64 34.416">
    <g id="Group_143" data-name="Group 143" transform="translate(-1707.5 -369.5)">
        <path id="Path_34" data-name="Path 34" d="M24.3,20.507a1.744,1.744,0,1,0,0-3.474,1.933,1.933,0,0,0-2.108,1.73A1.991,1.991,0,0,0,24.3,20.507Z" transform="translate(1703.47 359.552)"/>
        <path id="Path_34_-_Outline" data-name="Path 34 - Outline" d="M24.457,21.014c-.054,0-.11,0-.166-.006s-.085,0-.127,0a2.493,2.493,0,0,1-2.471-2.188l-.007-.056.006-.056a2.425,2.425,0,0,1,2.419-2.188c.062,0,.125,0,.188.007s.106-.006.158-.006a2.244,2.244,0,0,1,0,4.488ZM24.3,20.005l.039,0c.038,0,.076.005.114.005a1.252,1.252,0,0,0,1.058-.59,1.237,1.237,0,0,0,0-1.309,1.252,1.252,0,0,0-1.058-.59c-.038,0-.076,0-.114.005l-.047,0-.047,0c-.046,0-.093-.007-.139-.007a1.427,1.427,0,0,0-1.417,1.233,1.492,1.492,0,0,0,1.471,1.254c.033,0,.067,0,.1,0Z" transform="translate(1703.47 359.552)" fill="#f2f1ea"/>
        <path id="Path_35" data-name="Path 35" d="M17.578,17a1.948,1.948,0,0,0-2.108,1.73,1.962,1.962,0,0,0,2.108,1.759,1.744,1.744,0,1,0,0-3.488Z" transform="translate(1700.423 359.538)"/>
        <path id="Path_35_-_Outline" data-name="Path 35 - Outline" d="M17.4,16.495c.065,0,.131,0,.2.008a2.244,2.244,0,0,1,0,4.488c-.059,0-.118.006-.177.006a2.454,2.454,0,0,1-2.448-2.215l-.005-.052.006-.052A2.443,2.443,0,0,1,17.4,16.495Zm.174,3.5a1.244,1.244,0,1,0,0-2.488l-.044,0c-.043,0-.087-.006-.129-.006a1.444,1.444,0,0,0-1.43,1.239A1.457,1.457,0,0,0,17.42,20c.039,0,.079,0,.118,0Z" transform="translate(1700.423 359.538)" fill="#f2f1ea"/>
        <path id="Path_36" data-name="Path 36" d="M23.859,13.5a15.157,15.157,0,0,1,8.382,2.474,10.619,10.619,0,0,1,4.606,6.345l.137.6-.617.009a11.812,11.812,0,0,0-7.757,3,9.092,9.092,0,0,0-3.189,6.629v.017a7.858,7.858,0,0,0,.219,2.118l.15.618h-1.9a18.268,18.268,0,0,1-3.791-.492l-.772-.168a.169.169,0,0,0-.066-.006l-4.272,2.146,1.216-3.626a.082.082,0,0,0-.031-.094c-3.441-2.365-5.186-5.276-5.186-8.652a10.1,10.1,0,0,1,3.8-7.752A14.041,14.041,0,0,1,23.859,13.5Zm11.855,8.455a9.829,9.829,0,0,0-4.031-5.15,14.147,14.147,0,0,0-7.824-2.3c-6.545,0-11.869,4.451-11.869,9.922,0,3.027,1.6,5.661,4.754,7.829a1.085,1.085,0,0,1,.408,1.242l-.442,1.318,2.2-1.1.043-.013a1.174,1.174,0,0,1,.64-.006l.736.159a17.265,17.265,0,0,0,3.582.466h.631a8.858,8.858,0,0,1-.119-1.761,10.091,10.091,0,0,1,3.519-7.364A12.781,12.781,0,0,1,35.715,21.955Z" transform="translate(1698.617 358.181)" fill="#f2f1ea"/>
        <path id="Path_37" data-name="Path 37" d="M50.68,33.736c0-5.538-5.116-10.174-11.41-10.727a.48.48,0,0,0,0-.2C38.02,16.991,31.683,12.5,24.575,12.5c-8.038,0-14.535,5.61-14.535,12.515a11.919,11.919,0,0,0,5.48,9.666l-1.265,3.75a.61.61,0,0,0,.189.669.552.552,0,0,0,.422.16.712.712,0,0,0,.291-.073l4.695-2.326.581.1a20.174,20.174,0,0,0,4.215.567,6.032,6.032,0,0,0,1.8-.291,12.544,12.544,0,0,0,11.831,7.267,17.893,17.893,0,0,0,4.1-.654L46,45.829a.741.741,0,0,0,.32.087.712.712,0,0,0,.407-.131.61.61,0,0,0,.189-.683L46,42.035C48.994,39.579,50.68,36.657,50.68,33.736Zm-24.869,1.7H24.56a17.733,17.733,0,0,1-3.692-.407l-.712-.16a.669.669,0,0,0-.378,0l-3.27,1.613.843-2.544a.581.581,0,0,0-.218-.669c-3.3-2.267-4.971-5.044-4.971-8.241,0-5.814,5.538-10.422,12.369-10.422,6.032,0,11.381,3.576,12.486,8.445-6.308.087-11.439,4.884-11.439,10.073a8.358,8.358,0,0,0,.233,2.311ZM44.226,40.7a.567.567,0,0,0-.189.64l.552,1.846-2.3-1.25a.61.61,0,0,0-.291,0h-.131a15.1,15.1,0,0,1-3.75.625C32.38,42.558,27.7,38.6,27.7,33.837s4.68-8.721,10.422-8.721,10.436,4.012,10.436,8.721C48.529,36.148,47,38.634,44.226,40.7Z" transform="translate(1697.959 357.5)"/>
        <path id="Path_37_-_Outline" data-name="Path 37 - Outline" d="M46.311,46.416H46.3a1.248,1.248,0,0,1-.535-.146l-3.445-1.882a18.418,18.418,0,0,1-4.016.618c-.158.006-.316.008-.471.008a13.045,13.045,0,0,1-11.649-7.179,6.524,6.524,0,0,1-1.531.195h-.018a20.713,20.713,0,0,1-4.3-.577l-.4-.071-4.548,2.253a1.206,1.206,0,0,1-.491.124,1.046,1.046,0,0,1-.78-.289,1.116,1.116,0,0,1-.326-1.2l1.141-3.384A12.414,12.414,0,0,1,9.54,25.03v-.015a12.122,12.122,0,0,1,4.427-9.225A16.2,16.2,0,0,1,24.575,12a17.214,17.214,0,0,1,9.832,3.063,12.853,12.853,0,0,1,5.319,7.489c6.456.747,11.454,5.591,11.454,11.183,0,2.945-1.633,5.943-4.607,8.472l.818,2.739a1.111,1.111,0,0,1-.349,1.227l-.026.02a1.206,1.206,0,0,1-.693.223Zm-3.87-3.1,3.8,2.074a.237.237,0,0,0,.089.026.211.211,0,0,0,.094-.029.111.111,0,0,0,.024-.114l-.009-.028-1.011-3.386.257-.211c2.9-2.379,4.5-5.189,4.5-7.913a9.4,9.4,0,0,0-3.185-6.867,13.1,13.1,0,0,0-7.768-3.362l-.565-.05.119-.55a11.817,11.817,0,0,0-4.949-7.026A16.206,16.206,0,0,0,24.575,13a15.2,15.2,0,0,0-9.955,3.547,11.138,11.138,0,0,0-4.08,8.46,11.414,11.414,0,0,0,5.25,9.252l.329.211-1.389,4.12a.112.112,0,0,0,.033.123l.034.031a.053.053,0,0,0,.037.015h.015a.211.211,0,0,0,.087-.022l4.84-2.4.775.137a19.711,19.711,0,0,0,4.1.553,5.526,5.526,0,0,0,1.644-.267l.421-.136.186.4a12.044,12.044,0,0,0,10.928,6.986c.143,0,.289,0,.432-.008a17.409,17.409,0,0,0,3.981-.636Zm2.975.887-3.282-1.786-.014,0-.059.014h-.118a15.613,15.613,0,0,1-3.8.625h-.019a11.931,11.931,0,0,1-7.685-2.69,8.209,8.209,0,0,1,0-13.063,12.3,12.3,0,0,1,15.378.022,9.454,9.454,0,0,1,2.365,2.932,7.808,7.808,0,0,1,.878,3.577v.006a7.287,7.287,0,0,1-1.212,3.782,13.034,13.034,0,0,1-3.317,3.47.067.067,0,0,0-.021.074l.008.024Zm-3.269-2.787a1.112,1.112,0,0,1,.264.032l.063.015,1.288.7-.2-.673a1.064,1.064,0,0,1,.36-1.19l.006,0c2.6-1.93,4.1-4.285,4.13-6.462a7.527,7.527,0,0,0-2.887-5.741,11.3,11.3,0,0,0-14.091-.021,7.212,7.212,0,0,0,0,11.531,10.929,10.929,0,0,0,7.033,2.456,14.611,14.611,0,0,0,3.616-.6l.07-.021h.153A1.112,1.112,0,0,1,42.148,41.416ZM15.657,37.46l1.221-3.685a.082.082,0,0,0-.031-.094c-3.441-2.365-5.186-5.276-5.186-8.652a10.1,10.1,0,0,1,3.8-7.774,14.071,14.071,0,0,1,9.068-3.148,15.1,15.1,0,0,1,8.37,2.482,10.646,10.646,0,0,1,4.6,6.352l.137.6-.617.009a11.842,11.842,0,0,0-7.758,3,9.017,9.017,0,0,0-3.188,6.577v.02a7.856,7.856,0,0,0,.219,2.173l.151.619H24.56a18.274,18.274,0,0,1-3.8-.418l-.747-.169a.169.169,0,0,0-.067-.006ZM17.825,34.1l-.466,1.407L19.6,34.4l.041-.012a1.211,1.211,0,0,1,.33-.048,1.168,1.168,0,0,1,.312.042l.7.157a17.26,17.26,0,0,0,3.585.395H25.2a8.857,8.857,0,0,1-.119-1.821A10.016,10.016,0,0,1,28.6,25.8a12.813,12.813,0,0,1,7.774-3.227,9.857,9.857,0,0,0-4.03-5.158,14.091,14.091,0,0,0-7.811-2.311,13.071,13.071,0,0,0-8.425,2.914,9.112,9.112,0,0,0-3.444,7.008c0,3.027,1.6,5.661,4.754,7.829A1.085,1.085,0,0,1,17.825,34.1Z" transform="translate(1697.96 357.5)" fill="#f2f1ea"/>
        <path id="Path_38" data-name="Path 38" d="M27.35,24.038a1.453,1.453,0,1,0,0,2.791,1.6,1.6,0,0,0,1.759-1.453,1.642,1.642,0,0,0-1.759-1.453Z" transform="translate(1704.967 362.678)"/>
        <path id="Path_38_-_Outline" data-name="Path 38 - Outline" d="M27.478,23.417h0a2.14,2.14,0,0,1,2.127,1.9l.006.049,0,.049A2.1,2.1,0,0,1,27.4,27.334a1.954,1.954,0,1,1-.545-3.852v-.023l.461-.036C27.367,23.419,27.423,23.417,27.478,23.417Zm1.127,1.965a1.142,1.142,0,0,0-.755-.9V24.7l-.64-.187a.954.954,0,1,0,0,1.831l.094-.027.1.01a1.1,1.1,0,0,0,1.2-.95Z" transform="translate(1704.967 362.678)" fill="#f2f1ea"/>
        <path id="Path_39" data-name="Path 39" d="M32.58,24.018a1.453,1.453,0,1,0,0,2.791,1.6,1.6,0,0,0,1.744-1.453,1.6,1.6,0,0,0-1.744-1.337Z" transform="translate(1707.338 362.697)"/>
        <path id="Path_39_-_Outline" data-name="Path 39 - Outline" d="M32.173,23.46a2.007,2.007,0,0,1,.452.053c.041,0,.082,0,.122,0a2.089,2.089,0,0,1,2.071,1.767l.01.061-.005.061a2.1,2.1,0,0,1-2.195,1.915,1.954,1.954,0,1,1-.454-3.854Zm.361,1.066L32.44,24.5a.953.953,0,0,0-.267-.038h0a.954.954,0,1,0,.267,1.869l.092-.027.1.009a1.1,1.1,0,0,0,1.192-.938,1.093,1.093,0,0,0-1.072-.864,1.119,1.119,0,0,0-.115.006Z" transform="translate(1707.338 362.697)" fill="#f2f1ea"/>
    </g>
</svg>
