<svg xmlns="http://www.w3.org/2000/svg" width="40.5" height="33.905" viewBox="0 0 40.5 33.905">
    <g id="noun_chat_1062209" transform="translate(-7 -966.365)">
        <path id="Path_21" data-name="Path 21" d="M18.376,966.365a3.781,3.781,0,0,0-3.8,3.723v2.561H10.8A3.792,3.792,0,0,0,7,976.4v12.642a3.792,3.792,0,0,0,3.8,3.753h.677V999.8a.471.471,0,0,0,.824.309l6.358-7.314H36.139a3.782,3.782,0,0,0,3.782-3.753v-2.561h3.812a3.771,3.771,0,0,0,3.767-3.738V970.088a3.758,3.758,0,0,0-3.767-3.723H18.376Zm0,.942H43.733a2.809,2.809,0,0,1,2.826,2.781v12.656a2.822,2.822,0,0,1-2.826,2.8H39.921V976.4a3.782,3.782,0,0,0-3.782-3.753H15.521v-2.561a2.838,2.838,0,0,1,2.855-2.781ZM10.8,973.591H36.139a2.828,2.828,0,0,1,2.84,2.811v12.642a2.828,2.828,0,0,1-2.84,2.811H18.449a.471.471,0,0,0-.368.162l-5.666,6.519v-6.21a.471.471,0,0,0-.471-.471H10.8a2.844,2.844,0,0,1-2.855-2.811V976.4a2.844,2.844,0,0,1,2.855-2.811Z" fill-rule="evenodd"/>
        <path id="Path_22" data-name="Path 22" d="M39.018,997.169a2.121,2.121,0,1,0,2.174,2.12A2.143,2.143,0,0,0,39.018,997.169Zm0,.942a1.179,1.179,0,1,1-1.209,1.178A1.191,1.191,0,0,1,39.018,998.112Z" transform="translate(-15.802 -16.298)" fill-rule="evenodd"/>
        <path id="Path_23" data-name="Path 23" d="M22.252,997.169a2.12,2.12,0,1,0,2.151,2.12A2.158,2.158,0,0,0,22.252,997.169Zm0,.942a1.179,1.179,0,1,1,0,2.356,1.179,1.179,0,1,1,0-2.356Z" transform="translate(-6.919 -16.298)" fill-rule="evenodd"/>
        <path id="Path_24" data-name="Path 24" d="M55.763,997.165a2.123,2.123,0,1,0,2.165,2.122A2.155,2.155,0,0,0,55.763,997.165Zm0,.942a1.181,1.181,0,1,1-1.223,1.181A1.21,1.21,0,0,1,55.763,998.107Z" transform="translate(-24.654 -16.295)" fill-rule="evenodd"/>
    </g>
</svg>
